<?xml version="1.0" standalone="no"?><!DOCTYPE svg PUBLIC "-//W3C//DTD SVG 1.1//EN" "http://www.w3.org/Graphics/SVG/1.1/DTD/svg11.dtd"><svg t="1664518473738" class="icon" viewBox="0 0 1024 1024" version="1.1" xmlns="http://www.w3.org/2000/svg" p-id="2765" xmlns:xlink="http://www.w3.org/1999/xlink" width="32" height="32"><path d="M216.115942 22.26087h596.869565v989.217391H216.115942z" fill="#EB4545" p-id="2766"></path><path d="M514.318841 263.884058l286.144927-213.797101H228.173913z" fill="#BD3937" p-id="2767"></path><path d="M514.318841 233.73913l295.420289-211.47826H219.362319z" fill="#EB4545" p-id="2768"></path><path d="M514.318841 700.289855m-221.217392 0a221.217391 221.217391 0 1 0 442.434783 0 221.217391 221.217391 0 1 0-442.434783 0Z" fill="#FAE069" p-id="2769"></path><path d="M369.78087 700.141449l144.941449-144.946087 144.946087 144.946087-144.946087 144.946087z" fill="#D6AD37" p-id="2770"></path><path d="M216.115942 24.57971l298.666667 213.797102L813.449275 24.57971H216.115942z m29.681159 10.666667h537.507247l-268.985507 192.463768L245.797101 35.246377zM514.318841 476.289855c-124.753623 0-225.391304 101.101449-225.391305 225.391304s101.101449 225.391304 225.391305 225.391305 225.391304-101.101449 225.391304-225.391305c0.463768-124.753623-100.637681-225.391304-225.391304-225.391304z m0 435.942029c-116.405797 0-210.550725-94.144928-210.550725-210.550725s94.144928-210.550725 210.550725-210.550724c116.405797 0 210.550725 94.144928 210.550724 210.550724s-94.144928 210.550725-210.550724 210.550725z" fill="" p-id="2771"></path><path d="M514.318841 555.594203l-147.014493 147.014493 147.014493 147.014492 147.014492-147.014492-147.014492-147.014493z m-131.246377 147.014493l131.246377-131.246377 131.246376 131.246377-131.246376 131.246376-131.246377-131.246376z" fill="" p-id="2772"></path><path d="M216.115942 22.26087v989.217391h596.869565V22.26087H216.115942z m584.347826 977.623188H228.637681V33.855072h571.826087v966.028986z" fill="" p-id="2773"></path><path d="M627.014493 577.391304h18.550724v18.550725h-18.550724zM396.057971 577.391304h18.550725v18.550725h-18.550725zM396.057971 806.956522h18.550725v18.550724h-18.550725zM627.014493 806.956522h18.550724v18.550724h-18.550724z" fill="" p-id="2774"></path></svg>